<?xml version="1.0" encoding="UTF-8"?>
<!DOCTYPE svg PUBLIC "-//W3C//DTD SVG 1.1//EN" "http://www.w3.org/Graphics/SVG/1.1/DTD/svg11.dtd">
<!-- Creator: CorelDRAW X7 -->
<svg xmlns="http://www.w3.org/2000/svg" xml:space="preserve" width="100mm" height="56.2813mm" version="1.1" style="shape-rendering:geometricPrecision; text-rendering:geometricPrecision; image-rendering:optimizeQuality; fill-rule:evenodd; clip-rule:evenodd"
viewBox="0 0 6703 3772"
 xmlns:xlink="http://www.w3.org/1999/xlink">
 <defs>
  <style type="text/css">
   <![CDATA[
    .fil2 {fill:#3C8B7B}
    .fil3 {fill:#5CA595}
    .fil0 {fill:#972C73}
    .fil1 {fill:#C5599C}
   ]]>
  </style>
 </defs>
 <g id="Warstwa_x0020_1">
  <metadata id="CorelCorpID_0Corel-Layer"/>
  <g id="_438661816">
   <path class="fil0" d="M524 2831c0,-85 -14,-132 -46,-201 -31,-71 -57,-108 -126,-232 -118,-210 -150,-285 -150,-408 0,-55 4,-89 16,-114 17,-36 53,-53 88,-53 77,0 119,53 119,122l68 0 0 -198 -68 0 0 66c-22,-30 -59,-52 -131,-52 -154,0 -228,125 -228,275 0,67 17,138 38,200 25,69 58,135 111,224 101,164 170,256 170,407 0,105 -48,187 -154,187 -71,0 -129,-51 -148,-121l-46 19c30,113 111,166 217,166 164,0 270,-99 270,-287zm-312 -1119l131 0 167 -225 -164 0 -134 225zm643 1058l-22 0c-30,0 -37,-11 -43,-43 -3,-18 -7,-60 -7,-503 0,-320 6,-394 7,-494l-213 0 0 63 18 0c36,0 40,9 47,46 10,46 10,85 10,378 0,418 -6,476 -21,525 -8,24 -18,28 -31,28l-23 0 0 67 278 0 0 -67zm330 0l-11 0c-16,0 -26,-7 -35,-17 -23,-30 -24,-46 -24,-247 0,-262 6,-331 9,-359l-215 0 0 64 9 0c16,0 30,10 39,19 24,20 27,63 27,142 0,318 -3,332 -17,368 -9,25 -19,30 -36,30l-22 0 0 67 276 0 0 -67zm-143 -793c56,0 93,-42 93,-102 0,-62 -37,-105 -93,-105 -55,0 -92,43 -92,105 0,60 37,102 92,102l0 0zm1016 170l-194 0 0 64 20 0c32,0 48,13 48,29 0,9 -3,37 -5,47 -20,147 -44,275 -69,367 -37,-101 -97,-303 -116,-398l-121 0c-13,95 -72,303 -103,398 -31,-101 -59,-237 -81,-371 -4,-21 -4,-32 -4,-39 0,-31 30,-33 49,-33l27 0 0 -64 -275 0 0 64 8 0c17,0 31,7 38,29 38,112 110,408 147,597l101 0c38,-170 84,-334 123,-459 46,137 102,325 138,459l92 0c38,-232 85,-456 122,-583 11,-36 21,-43 42,-43l13 0 0 -64zm571 623l-10 0c-32,0 -53,-14 -94,-57 -39,-42 -72,-124 -113,-177 -19,-26 -42,-44 -68,-50 43,-62 163,-214 183,-236 28,-27 44,-39 64,-39l16 0 0 -64 -214 0 0 64c39,0 58,7 58,25 0,7 -8,23 -19,40 -35,55 -109,148 -168,208 -2,-60 -2,-119 -2,-178 0,-253 7,-480 13,-576l-214 0 0 63 10 0c20,0 33,10 43,26 25,36 25,70 25,257 0,585 -3,604 -15,654 -7,35 -14,40 -30,40l-33 0 0 67 277 0 0 -67c-47,0 -56,-5 -63,-43 -7,-47 -10,-64 -10,-207 27,22 52,55 82,125 73,163 125,192 216,192l66 0 0 -67zm253 -639c-59,0 -114,24 -155,64 -56,55 -91,127 -91,302 0,164 29,223 76,276 43,51 104,78 170,78 63,0 121,-24 164,-72 50,-55 83,-122 83,-279 0,-198 -37,-259 -96,-310 -42,-38 -94,-59 -151,-59zm0 64c29,0 50,10 69,32 17,20 27,52 27,270 0,206 -10,238 -29,259 -15,20 -40,32 -67,32 -26,0 -52,-12 -69,-33 -17,-22 -29,-54 -29,-258 0,-220 12,-250 29,-270 19,-22 42,-32 69,-32zm1078 -48l-194 0 0 64 20 0c32,0 48,13 48,29 0,9 -3,37 -5,47 -20,147 -44,275 -69,367 -37,-101 -98,-303 -116,-398l-121 0c-13,95 -72,303 -104,398 -30,-101 -58,-237 -80,-371 -4,-21 -4,-32 -4,-39 0,-31 30,-33 49,-33l27 0 0 -64 -275 0 0 64 7 0c18,0 32,7 39,29 38,112 110,408 147,597l101 0c38,-170 84,-334 123,-459 46,137 102,325 138,459l92 0c38,-232 85,-456 122,-583 10,-36 21,-43 42,-43l13 0 0 -64zm574 0l-190 0 0 64 21 0c35,0 41,15 39,40 -3,45 -39,213 -89,403 -65,-206 -99,-368 -99,-411 0,-20 13,-32 39,-32l26 0 0 -64 -279 0 0 64 17 0c27,0 34,10 46,43 22,59 162,529 180,594 -38,154 -43,178 -71,217 -18,29 -43,42 -76,42 -23,0 -56,-15 -56,-45 53,0 85,-34 85,-87 0,-62 -33,-95 -85,-95 -55,0 -92,43 -92,110 0,95 37,180 157,180 125,0 171,-112 218,-316 32,-118 132,-541 150,-600 8,-27 26,-43 50,-43l9 0 0 -64zm874 684c0,-85 -15,-132 -46,-201 -32,-71 -58,-108 -127,-232 -118,-210 -149,-285 -149,-408 0,-55 4,-89 15,-114 18,-36 54,-53 88,-53 78,0 120,53 120,122l67 0 0 -198 -67 0 0 66c-22,-30 -59,-52 -131,-52 -154,0 -229,125 -229,275 0,67 17,138 39,200 24,69 57,135 111,224 100,164 169,256 169,407 0,105 -47,187 -154,187 -70,0 -129,-51 -148,-121l-46 19c31,113 111,166 217,166 164,0 271,-99 271,-287zm638 -147l-58 0 0 48c0,24 -7,38 -24,38 -11,0 -22,-5 -27,-31 -6,-29 -7,-50 -7,-216 0,-207 -9,-282 -55,-335 -36,-41 -95,-57 -164,-57 -119,0 -224,74 -224,198 0,71 39,106 93,106 52,0 91,-46 91,-99 0,-51 -20,-82 -63,-97 5,-26 38,-46 86,-46 43,0 63,8 80,34 19,26 23,70 23,152 -20,23 -51,39 -79,56 -60,38 -129,64 -179,95 -67,41 -91,81 -91,153 0,105 69,168 206,168 77,0 132,-36 169,-89 23,46 61,86 112,86 72,0 111,-49 111,-111l0 -53zm-243 0c-13,38 -40,88 -111,88 -59,0 -103,-39 -103,-96 0,-71 31,-100 79,-136 44,-33 99,-60 132,-107 2,70 3,181 3,251l0 0zm615 -848c9,33 12,73 12,359 -25,-43 -68,-64 -128,-64 -109,0 -223,96 -223,371 0,231 108,349 243,349 56,0 114,-37 150,-83 24,54 60,69 133,69l28 0 0 -67 -18 0c-36,0 -44,-7 -47,-43 -7,-76 -7,-125 -7,-385 0,-456 0,-510 3,-612l-216 0 0 63 23 0c26,0 37,7 47,43zm2 825c0,65 -35,127 -98,127 -26,0 -53,-13 -70,-35 -18,-24 -25,-57 -25,-251 0,-219 12,-251 32,-274 16,-20 39,-33 63,-33 63,0 98,59 98,121l0 345z"/>
   <path class="fil1" d="M6299 2162c-51,1 -93,27 -122,69 -52,72 -64,182 -64,268 0,111 29,263 148,306 4,1 9,3 13,4 -19,-8 -36,-21 -49,-37l0 -1 -1 -1c-16,-23 -21,-49 -24,-77 -3,-25 -4,-50 -5,-75 -1,-39 -1,-79 -1,-119 0,-44 0,-88 2,-133 1,-27 2,-54 6,-81 4,-30 11,-57 31,-80 17,-21 40,-37 66,-43zm114 615c12,-10 23,-21 32,-32l34 -44 23 51c6,12 13,25 25,33 17,13 46,15 69,16 -40,-5 -57,-26 -62,-73 0,-9 -1,-17 -2,-26 -3,-40 -4,-80 -4,-120 -1,-81 -1,-161 -1,-242 0,-137 0,-274 0,-411 1,-56 1,-112 2,-168l-129 0c27,8 41,30 51,64l0 0c8,30 9,62 10,92 6,169 30,770 -48,860zm-821 -582c-43,28 -72,72 -72,132 0,41 16,73 60,73 35,0 57,-33 57,-66 0,-34 -8,-54 -41,-66l-28 -10 7 -29c3,-13 9,-24 17,-34zm65 310c-10,5 -19,9 -29,14 -24,12 -49,24 -72,38 -53,32 -74,61 -74,124 0,103 78,134 172,134 27,0 52,-5 74,-16 -11,3 -23,4 -36,4 -75,0 -137,-52 -137,-130 0,-79 33,-117 93,-162 3,-2 6,-4 9,-6zm175 197l21 43c16,31 43,67 82,67 20,0 36,-4 49,-13 -6,2 -13,3 -20,3 -35,0 -53,-26 -60,-58l0 -1c-1,-1 -1,-3 -1,-5 -4,-20 -5,-41 -6,-62 -1,-51 -1,-103 -1,-155 0,-69 1,-145 -9,-213 -4,-32 -12,-66 -32,-93 -2,-3 -4,-5 -5,-7 -25,-28 -63,-40 -101,-44 21,7 38,20 53,42 26,37 47,342 36,458 -1,17 -3,30 -6,38zm-689 -907c-114,18 -160,126 -160,239 0,63 16,129 37,188 27,78 65,148 107,218 31,50 62,99 91,150 25,43 48,88 63,136 14,46 21,91 21,139 0,106 -47,201 -153,217 151,-4 225,-102 225,-253 0,-76 -12,-120 -43,-188 -7,-16 -15,-31 -23,-47 -12,-24 -26,-48 -40,-72 -21,-37 -42,-73 -62,-110 -36,-63 -73,-129 -102,-196 -21,-46 -38,-93 -46,-144 -4,-28 -6,-56 -6,-84 0,-41 1,-91 19,-128 15,-31 41,-54 72,-65zm-1105 1324c-17,-14 -30,-34 -30,-59l0 -33 34 0c35,0 51,-20 51,-55 0,-36 -12,-61 -51,-61 -43,0 -58,39 -58,77 0,59 14,107 54,131zm276 -358l-31 -99c-28,-89 -53,-179 -74,-269 -8,-31 -14,-62 -20,-93 -3,-19 -7,-40 -7,-59 0,-35 21,-56 51,-63l-191 0c30,7 43,30 55,63 13,36 24,74 35,111 19,62 38,125 57,187 19,62 37,124 56,186 11,38 22,75 32,112l2 9 -2 8c-11,46 -22,92 -35,138 -7,24 -15,48 -27,70 -4,7 -9,14 -13,20 -14,21 -30,36 -50,45 5,-2 10,-4 14,-7 34,-18 55,-56 70,-89 26,-58 42,-126 56,-187l1 0 0 -1c7,-27 14,-55 21,-82zm186 -583l-110 0c34,8 50,33 48,73 0,4 -1,8 -1,12 2,-7 4,-14 5,-20l1 -1c9,-30 29,-54 57,-63l0 -1zm-1086 574l-27 -91c-36,-120 -61,-250 -81,-374 -3,-15 -5,-29 -5,-45 0,-20 8,-39 25,-52 9,-6 18,-10 29,-12l-185 0 0 2c21,7 36,23 44,47 17,50 30,101 44,152 18,68 34,136 50,205 17,72 34,144 48,217l47 0c4,-16 8,-33 11,-49zm348 2l-33 -90c-24,-63 -44,-129 -63,-193 -18,-60 -36,-122 -50,-184l-57 0 26 78c48,143 92,290 132,436l38 0c2,-16 5,-31 7,-47zm164 -576l-116 0c30,6 57,25 57,60 0,10 -1,23 -2,35 2,-10 5,-20 8,-30 10,-33 23,-57 53,-65zm-995 631c34,-9 65,-27 90,-55 25,-27 42,-54 53,-89 18,-52 22,-113 22,-167 0,-59 -3,-128 -20,-185 -10,-33 -24,-59 -49,-85 -5,-5 -11,-10 -16,-15 -25,-22 -52,-37 -83,-45 18,7 34,19 48,35 20,22 25,50 28,78 4,27 5,55 6,81 1,45 2,89 2,133 0,42 -1,84 -2,126 -1,25 -3,51 -6,77 -4,29 -10,55 -29,77 -12,15 -27,27 -44,34zm-96 -641c-32,9 -61,26 -85,49 -28,27 -46,56 -58,93 -19,57 -22,125 -22,185 0,51 2,109 15,158 8,31 20,56 40,81 4,5 8,10 12,15l1 0c26,31 59,51 96,60 -18,-7 -35,-20 -47,-36 -18,-22 -24,-48 -28,-76 -4,-25 -5,-52 -6,-77 -2,-42 -2,-83 -2,-125 0,-44 0,-89 2,-133 1,-27 2,-55 6,-81 3,-29 9,-56 28,-78 14,-16 30,-28 48,-35zm-530 341c33,34 55,79 73,120 24,54 64,142 125,164 19,6 40,8 60,8l32 0 0 -2c-39,-8 -66,-35 -94,-65 -29,-31 -52,-75 -73,-112 -13,-23 -26,-47 -43,-67l0 -1 0 0c-12,-16 -29,-33 -48,-38l-32 -7zm-74 32l-1 -58c-1,-60 -1,-119 -1,-179 0,-116 1,-232 4,-348 2,-65 3,-130 7,-195l-143 0c19,6 34,19 45,37 3,4 5,8 8,12 14,27 18,57 20,87 3,58 2,119 2,177 0,109 0,218 0,328 -1,62 -1,124 -2,186 -1,44 -2,95 -11,139 -1,3 -1,6 -2,8 -7,32 -18,60 -50,66l198 0 0 -1c-35,-5 -54,-22 -63,-68l0 -1 0 -1c-1,-9 -3,-17 -4,-26 -7,-53 -7,-109 -7,-163zm341 -363l-144 0c21,4 41,12 51,32 3,7 5,15 5,24 0,4 -1,10 -2,15 6,-8 13,-17 20,-24l1 -1 1 0c20,-20 41,-39 68,-46zm-1059 574l-28 -91c-36,-120 -61,-250 -81,-374 -3,-15 -5,-29 -5,-45 0,-20 8,-39 25,-52 9,-6 19,-10 29,-12l-185 0 0 2c21,7 36,23 44,47 17,50 30,101 44,152 18,68 34,136 50,205 17,72 34,144 48,217l47 0c4,-16 8,-33 12,-49zm348 2l-34 -90c-24,-63 -44,-129 -63,-193 -18,-60 -36,-122 -49,-184l-58 0 26 78c48,143 92,290 132,436l38 0c2,-16 5,-31 8,-47zm163 -576l-116 0c30,6 57,25 57,60 0,10 -1,23 -2,35 2,-10 5,-20 8,-30 10,-33 23,-57 53,-65zm-982 -237c40,0 60,-30 60,-68 0,-38 -19,-72 -60,-72 -41,0 -59,35 -59,72 0,37 19,68 59,68zm110 858c-15,-5 -27,-14 -38,-26l-1 -1 0 -1c-4,-4 -7,-9 -10,-14 -14,-24 -17,-50 -19,-77 -4,-58 -3,-118 -3,-176 0,-89 1,-179 4,-268 0,-20 1,-39 2,-58l-144 0 0 2c14,5 26,13 37,23 20,17 29,42 33,68 5,32 5,67 5,99 0,93 1,187 -3,279 -1,31 -3,63 -13,92 -1,3 -3,6 -4,9 -10,28 -26,46 -53,51l207 0 0 -2zm-539 2l204 0c-37,-5 -53,-30 -60,-70l0 -1c-5,-30 -4,-66 -5,-97 -3,-137 -3,-274 -3,-411 0,-103 1,-206 3,-308 1,-51 3,-102 4,-153l-128 0c29,8 40,31 47,69 7,34 9,67 9,102 3,94 2,189 2,283 0,84 0,168 -1,252 -1,50 -2,100 -4,150 -2,44 -5,91 -18,132 -8,28 -24,47 -50,52zm-342 -1124l55 0 117 -159 -78 0 -94 159zm-12 118c-113,18 -160,126 -160,239 0,63 16,129 37,188 27,78 65,148 108,218 30,50 62,99 91,150 25,43 47,88 62,136 15,46 21,91 21,139 0,106 -47,201 -152,217 151,-4 225,-102 225,-253 0,-76 -13,-120 -43,-188 -8,-16 -15,-31 -23,-47 -13,-24 -27,-48 -40,-72 -21,-37 -42,-73 -63,-110 -35,-63 -72,-129 -102,-196 -21,-46 -37,-93 -45,-144 -5,-28 -6,-56 -6,-84 0,-41 1,-91 19,-128 14,-31 41,-54 71,-65z"/>
   <g>
    <path class="fil0" d="M3414 375c264,-21 450,109 614,320 217,280 314,434 314,869 0,120 -15,236 -43,345l-199 -111 -702 -702 -703 702 -189 106c-26,-111 -40,-229 -40,-351 0,-300 29,-600 168,-810 167,-252 532,-350 780,-368z"/>
    <path class="fil1" d="M3675 523c240,58 379,223 480,455 134,306 188,421 95,802 -4,16 -8,32 -13,48l-848 -774 -721 713 -127 66c-38,-184 -14,-347 35,-548 64,-262 154,-516 323,-660 203,-173 550,-156 776,-102z"/>
    <g>
     <g>
      <path class="fil2" d="M3383 335l-40 -254c0,0 221,-212 154,49 -67,260 -114,205 -114,205z"/>
      <path class="fil3" d="M3392 307l-30 -195c0,0 168,-163 117,37 -51,200 -87,158 -87,158z"/>
     </g>
     <g>
      <path class="fil2" d="M3336 355c-6,-208 -550,-344 -745,-134 -195,209 303,219 303,219 0,0 60,-104 442,-85z"/>
      <path class="fil3" d="M3316 342c3,-163 -490,-286 -675,-129 -185,158 268,181 268,181 0,0 60,-79 407,-52z"/>
     </g>
    </g>
    <g>
     <polygon class="fil0" points="3234,1587 3555,1579 3550,1909 3234,1900 "/>
     <polygon class="fil1" points="3245,1626 3538,1618 3538,1873 3264,1884 "/>
    </g>
   </g>
   <path class="fil2" d="M903 3070c-15,0 -32,9 -37,29l-16 59c-13,-43 -47,-77 -102,-77 -128,0 -196,158 -196,303 0,87 39,148 118,148 51,0 91,-30 120,-70l-14 77c-90,18 -173,66 -173,142 0,50 35,91 103,91 55,0 100,-32 118,-142 3,-10 73,-373 106,-513 9,-29 -7,-47 -27,-47zm-877 196l441 0c14,0 26,12 26,26l0 0c0,14 -12,26 -26,26l-441 0c-14,0 -26,-12 -26,-26l0 0c0,-14 12,-26 26,-26zm3862 0l2789 0c14,0 26,12 26,26l0 0c0,14 -12,26 -26,26l-2772 0c-72,131 -172,216 -280,216 -81,0 -120,-45 -132,-116 -59,70 -141,118 -225,118 -100,0 -134,-61 -144,-128 -68,102 -137,122 -181,122 -73,0 -96,-56 -96,-114 0,-3 0,-6 0,-9 -59,75 -122,123 -183,123 -69,0 -89,-43 -89,-92 0,-50 14,-125 32,-191 -35,56 -71,113 -92,145 -58,82 -95,138 -138,138 -47,0 -51,-35 -51,-76 0,-7 0,-14 1,-21 -62,81 -123,97 -163,97 -73,0 -96,-56 -96,-114 0,-4 0,-9 0,-13 -68,78 -152,131 -230,131 -99,0 -136,-69 -136,-171 0,-14 1,-29 3,-43 -61,9 -126,24 -162,39 17,25 24,48 24,74 0,62 -47,97 -109,97 -44,0 -91,-29 -91,-81 0,-22 11,-66 85,-107 -35,-37 -75,-71 -76,-115 0,-70 72,-132 166,-132 46,0 93,22 93,88 0,27 -10,51 -38,51 -31,-1 -26,-26 -26,-51 0,-27 -16,-36 -35,-36 -51,0 -95,37 -95,79 0,28 32,53 60,82l7 8c44,-18 127,-39 206,-50 25,-104 89,-197 183,-197 78,0 111,52 111,112 0,38 -12,93 -48,93 -17,0 -33,-14 -27,-37 13,-51 14,-115 -39,-115 -82,0 -126,162 -126,247 0,78 34,113 74,113 41,0 144,-44 234,-191 8,-58 20,-117 38,-174 14,-48 82,-35 65,16 -15,50 -26,99 -33,143 0,4 -1,9 -3,14 -7,47 -9,88 -9,118 0,47 14,70 34,70 26,0 89,-17 179,-195 1,-3 2,-5 4,-8 16,-69 36,-138 53,-181 4,-12 19,-22 32,-22 21,0 40,14 29,44 -41,117 -72,280 -76,347 51,-70 138,-204 190,-282 17,-26 35,-45 60,-45 23,0 45,15 45,48 0,26 -45,182 -45,249 0,31 9,47 25,47 27,0 111,-58 196,-195 10,-54 25,-109 41,-163 15,-48 82,-36 66,16 -35,110 -54,210 -54,270 0,47 14,70 35,70 26,0 88,-17 177,-193 19,-110 89,-215 190,-215 59,0 96,40 96,96 0,90 -77,207 -227,209 6,62 29,113 83,111 79,-2 158,-61 225,-173 15,-120 83,-244 191,-244 79,0 111,52 111,112 0,38 -12,93 -47,93 -17,0 -34,-14 -27,-37 13,-51 14,-115 -39,-115 -82,0 -127,162 -127,247 0,78 35,113 75,113 41,0 130,-30 221,-187 13,-21 23,-29 37,-29l1 0zm-578 -144c19,0 36,13 36,54 0,49 -54,149 -162,151 8,-101 66,-205 126,-205zm-342 -164c18,0 29,11 29,26 0,17 -15,26 -29,26 -22,0 -29,-12 -29,-26 0,-18 16,-26 29,-26zm0 -42c-48,1 -78,32 -78,71 0,45 35,68 75,68 38,0 83,-25 83,-72 0,-35 -28,-68 -80,-67zm-804 42c19,0 29,11 29,26 0,17 -15,26 -29,26 -21,0 -29,-12 -29,-26 0,-18 16,-26 29,-26zm0 -42c-47,1 -78,32 -78,71 0,45 35,68 75,68 39,0 83,-25 83,-72 0,-35 -28,-68 -80,-67zm-637 150c13,2 30,-3 39,-18 29,-48 34,-62 50,-92 12,-22 0,-41 -20,-44 -14,-2 -30,4 -40,21 -20,36 -30,59 -47,92 -11,23 0,39 18,41zm-61 416c-23,0 -34,-15 -34,-32 0,-18 16,-41 54,-63 10,17 16,35 16,56 0,14 -7,39 -36,39zm-298 -411c-95,0 -178,89 -190,172 -3,19 11,32 25,32 3,0 6,-1 9,-2 -12,37 -19,83 -19,124 0,71 33,133 118,133 118,0 193,-138 193,-284 0,-113 -55,-175 -136,-175zm-52 408c-39,0 -58,-31 -58,-85 0,-37 8,-85 29,-144 10,-24 -6,-40 -25,-40 -4,0 -9,0 -13,2 25,-50 71,-90 110,-90 52,0 80,46 80,119 0,121 -58,238 -123,238zm-446 2c-29,0 -52,-29 -52,-111 0,-92 53,-237 130,-237 41,0 57,54 36,128 -4,18 15,22 32,16 -34,108 -79,204 -146,204zm31 237c-22,0 -34,-18 -34,-39 0,-39 46,-69 99,-85l-6 37c-13,63 -33,87 -59,87z"/>
   <path class="fil3" d="M903 3083c-12,0 -22,8 -25,19l-27 102 -13 -43c-13,-42 -46,-67 -90,-67 -20,0 -39,4 -57,13 -92,44 -126,183 -126,277 0,69 26,135 105,135 47,0 83,-28 110,-64l32 -44 -25 138 -9 2c-63,13 -162,51 -162,130 0,53 40,79 90,79 74,0 96,-70 106,-132l0 0c7,-31 12,-62 18,-93 13,-64 26,-128 39,-192 15,-76 31,-153 49,-229l0 0 0 0c4,-14 2,-31 -15,-31zm-107 182c0,0 0,1 0,1 3,2 13,1 16,-1l23 -7 -7 23c-21,68 -69,213 -158,213 -58,0 -64,-82 -64,-124 0,-36 7,-73 17,-107 17,-54 58,-142 125,-142 9,0 18,2 26,6 43,25 33,98 22,138zm-95 465c-29,0 -47,-23 -47,-51 0,-53 66,-84 109,-97l19 -6 -10 58c-7,36 -23,96 -71,96zm-675 -451c-7,0 -13,6 -13,13 0,7 6,13 13,13l441 0c7,0 13,-6 13,-13 0,-7 -6,-13 -13,-13l-441 0zm2593 -29c-15,58 -31,129 -31,188 0,51 22,80 76,80 69,0 134,-69 174,-119l23 -30 -1 38c0,3 0,6 0,9 0,56 21,102 83,102 74,0 132,-60 170,-117l18 -26 5 31c12,77 53,117 132,117 84,0 163,-51 215,-113l18 -21 4 27c12,68 49,105 120,105 121,0 215,-112 269,-209l4 -7 2779 0c7,0 13,-6 13,-13 0,-7 -6,-13 -13,-13l-2789 0 -1 0c-13,0 -20,13 -26,23 -34,57 -78,117 -133,156 -28,19 -64,37 -99,37 -7,0 -13,-1 -20,-3 -53,-14 -67,-75 -67,-123 0,-76 41,-260 139,-260 69,0 63,84 51,131 -3,12 2,21 15,21 28,0 34,-59 34,-80 0,-62 -34,-99 -98,-99 -112,0 -167,140 -179,233l0 2 -1 3c-50,83 -131,175 -235,178 -68,2 -91,-65 -96,-121l-2 -14 14 0c61,-1 118,-23 161,-68 31,-34 53,-82 53,-129 0,-50 -33,-83 -83,-83 -104,0 -162,116 -178,204l0 2 -1 2c-30,60 -106,200 -188,200 -41,0 -47,-53 -47,-83 0,-39 6,-81 14,-119 10,-52 24,-104 40,-155 12,-36 -32,-40 -42,-8 -16,52 -30,106 -40,161l-1 2 -1 2c-34,54 -75,109 -122,152 -19,17 -59,50 -85,50 -32,0 -38,-36 -38,-60 0,-36 10,-81 18,-116 6,-28 12,-57 19,-85 2,-12 9,-36 9,-48 0,-21 -12,-35 -33,-35 -22,0 -39,23 -50,39 -30,46 -60,91 -90,137 -33,49 -65,99 -100,146l-26 34 3 -43c2,-33 8,-68 14,-101 8,-45 18,-90 29,-135 10,-38 21,-77 34,-114 6,-16 1,-28 -17,-28 -7,0 -18,7 -21,14 -21,57 -38,121 -52,180l0 3 -2 2c-1,2 -2,4 -3,6 -30,60 -107,202 -190,202 -40,0 -47,-53 -47,-83 0,-40 4,-81 10,-120l0 -1 0 -1c1,-3 2,-7 2,-10l0 -1 0 -1c8,-49 19,-97 34,-145 12,-36 -32,-40 -41,-8 -18,56 -30,113 -37,171l-1 3 -1 2c-36,59 -82,115 -139,155 -28,19 -71,43 -106,43 -6,0 -13,-1 -19,-3 -53,-14 -68,-75 -68,-123 0,-76 41,-260 139,-260 70,0 63,84 52,131 -4,12 2,21 14,21 29,0 35,-59 35,-80 0,-62 -35,-99 -98,-99 -97,0 -151,106 -171,187l-2 8 -8 1c-9,1 -18,3 -26,4 -56,9 -125,24 -177,45l-8 4 -13 -15c-23,-23 -64,-55 -64,-90 0,-55 58,-91 108,-91 31,0 48,18 48,48 0,8 -2,29 2,35 2,3 8,3 11,3 22,0 26,-20 26,-38 0,-51 -32,-76 -81,-76 -63,0 -139,35 -152,103 -1,5 -1,11 -1,17 1,40 46,79 72,107l11 11 -14 8c-34,19 -78,53 -78,96 0,43 39,69 78,69 52,0 97,-29 97,-85 0,-25 -8,-46 -22,-67l-8 -13 14 -6c40,-16 91,-27 134,-35 10,-1 20,-3 30,-5l16 -2 -2 16c-2,14 -2,28 -2,42 0,86 25,158 123,158 85,0 168,-65 221,-127l22 -26 0 35c0,4 0,9 0,13 0,56 21,102 83,102 63,0 116,-45 153,-92l24 -32 -2 40c0,7 0,13 0,20 0,15 0,42 10,54 7,8 18,10 28,10 21,0 41,-20 54,-35 27,-29 51,-66 74,-99 32,-45 61,-96 91,-143l44 -71 -21 80zm691 -141c37,0 49,35 49,67 0,35 -22,75 -44,101 -33,39 -79,62 -131,63l-13 0 1 -14c0,-11 2,-23 4,-34 8,-43 24,-89 49,-125 19,-28 49,-58 85,-58zm-1844 386c-27,0 -46,-18 -46,-45 0,-33 34,-59 60,-74l11 -7 6 11c11,20 18,40 18,63 0,29 -20,52 -49,52zm1502 -566c-35,0 -65,21 -65,58 0,37 27,55 62,55 34,0 70,-21 70,-59 0,-37 -33,-55 -67,-54zm0 16c23,0 41,15 41,39 0,23 -19,39 -41,39 -25,0 -42,-14 -42,-39 0,-23 20,-39 42,-39zm-804 -16c-34,0 -65,21 -65,58 0,37 27,55 62,55 34,0 70,-21 70,-59 0,-37 -33,-55 -67,-54zm0 16c23,0 42,15 42,39 0,23 -20,39 -42,39 -24,0 -42,-14 -42,-39 0,-23 20,-39 42,-39zm-636 109c10,1 22,-4 27,-13 18,-30 34,-60 50,-91 7,-12 4,-24 -11,-26 -12,-1 -22,5 -27,14 -16,31 -31,62 -46,93 -6,10 -5,21 7,23zm-360 29c-85,0 -166,80 -178,162 -1,8 3,17 13,17 1,0 4,-1 6,-1l22 -7 -7 22c-12,38 -19,81 -19,121 0,68 32,121 106,121 18,0 36,-4 52,-11 93,-40 128,-169 128,-261 0,-80 -31,-163 -123,-163zm-52 409c-55,0 -71,-51 -71,-98 0,-49 14,-102 30,-148l0 -1 0 0c6,-12 1,-23 -13,-23 -3,0 -5,1 -8,2l-32 14 16 -31c21,-43 69,-98 121,-98 72,0 93,72 93,132 0,57 -13,119 -39,170 -19,37 -52,81 -97,81z"/>
  </g>
 </g>
</svg>
